/* XPM */
static char * mp_xpm[] = {
"32 32 6 1",
"       c None",
".      c #FF4500",
"+      c #F00000",
"@      c #E4E4E4",
"#      c #505454",
"$      c #000000",
"          ....+++++++           ",
"        ......++++++++++        ",
"      ...@@@@@@+++++++++++      ",
"     ...@@@@@@@@@++++++++++     ",
"    ..@@@@@@@@@@@@++++++++++    ",
"   ..@@@@@@@@@@@@@@++++++++++   ",
"  ..@@@@@@@@@@@@@@@+++++++++++  ",
"  ..@@@@@@@@@@@@@@@@++++++++++  ",
" ..@@@@@##@@##@@@@@@+++++++++++ ",
" ..@@@@###@@###@@@@@+++++++++++ ",
"..@@@@####@@####@@@@+++++++++++ ",
"..@@@@####@@####@@@@++++++++++++",
"..@@@@####@@####@@@@++++++++++++",
"..@@@@####@@####@@@@++++++++++++",
".++@@@@##@@@@##@@@@+++++++++++++",
".+++@@@@@@++@@@@@@++++++++++++++",
".+++++++++++++++++++++++$+++++++",
".+++++++++++++++++++++++$+++++++",
"..++++++$$$$$$+++++++++++$++++++",
" .+++++$$$$$$$$+++++++++++$+++++",
" ..+++$$++++++$$+++$.+++++$++++ ",
"  ..++$++++++++$+++$..+++++$++  ",
"   ..+++++++++++++++$..+++++$   ",
" ..+..+++++++++++++++$..++++++  ",
"..++$$.++++++++++++++$$$$++++++ ",
"..++++$..+++++++++++$++++$$+++++",
"..+++++$$..++++++++$.++++++$++++",
"..+++++++$$...++++$.+++++++$++++",
" ..++++++++$$$    ..++++++++++++",
"  ..++++++++++    ..++++++++++++",
"    ..++++++++     ..++++++++++ ",
"      ..+++++       ..++++++++  "};
